<svg xmlns="http://www.w3.org/2000/svg" viewBox="0 0 52 52"><path d="M32.07 13.87a2.59 2.59 0 012.44 1.73h9a2.61 2.61 0 110 1.73h-9a2.59 2.59 0 11-2.44-3.46zm13.86 3.46a.87.87 0 10-.86-.86.87.87 0 00.86.86zm-13.86 0a.87.87 0 10-.87-.86.87.87 0 00.87.86zm-6.94 1.9v-5.36a.87.87 0 01.26-.62l3.46-3.46a.87.87 0 01.62-.26h2.76a2.6 2.6 0 110 1.74h-2.4l-3 3v5a2.6 2.6 0 11-1.74 0zm9.54-8a.87.87 0 10-.87-.87.87.87 0 00.87.91zM26 22.53a.87.87 0 10-.87-.86.87.87 0 00.87.86zm-16.47 0a2.63 2.63 0 011.12.26l1.48-1.48V13a.83.83 0 01.26-.61l8.67-8.68a2.59 2.59 0 01-.26-1.11 2.63 2.63 0 111.49 2.34l-8.42 8.42v8.31a.83.83 0 01-.26.61L11.87 24a2.45 2.45 0 01.26 1.11 2.6 2.6 0 11-2.6-2.6zM23.4 3.47a.87.87 0 10-.87-.87.87.87 0 00.87.87zM9.53 26a.87.87 0 100-1.73.87.87 0 000 1.73zm-7.8-13.71V8.67A.87.87 0 012 8.05L8.05 2a.87.87 0 01.62-.26h4.49a2.6 2.6 0 110 1.74H9L3.47 9v3.26a2.6 2.6 0 11-1.74 0zM15.6 3.47a.87.87 0 10-.87-.87.87.87 0 00.87.87zM2.6 15.6a.87.87 0 10-.87-.87.87.87 0 00.87.87zM13.87 47V34.51a2.59 2.59 0 01.86-5 2.58 2.58 0 012.44 1.73h9a2.59 2.59 0 014.88 0h5L39.26 28a2.63 2.63 0 111.23 1.23L37 32.68a.86.86 0 01-.61.25H31a2.58 2.58 0 01-4.88 0h-9a2.61 2.61 0 01-1.57 1.58V47a2.61 2.61 0 11-1.73 0zM41.6 27.73a.87.87 0 10-.87-.86.87.87 0 00.87.86zm-13 5.2a.87.87 0 10-.87-.86.87.87 0 00.87.86zM14.73 50.27a.87.87 0 10-.86-.87.87.87 0 00.86.87zm0-17.34a.87.87 0 10-.86-.86.87.87 0 00.86.86zm3.47-15.44v-2.76a.86.86 0 01.25-.61L28.86 3.71a2.59 2.59 0 01-.26-1.11 2.59 2.59 0 015-.87h3.63a.86.86 0 01.86.87v2.24l3.22 3.22A2.6 2.6 0 1142.47 13a2.6 2.6 0 01-2.6-2.6 2.45 2.45 0 01.26-1.11l-3.48-3.48a.86.86 0 01-.25-.61V3.47h-2.76a2.56 2.56 0 01-3.55 1.47L19.93 15.09v2.4a2.6 2.6 0 11-1.73 0zm24.27-6.22a.87.87 0 10-.87-.87.87.87 0 00.87.87zM31.2 3.47a.87.87 0 10-.87-.87.87.87 0 00.87.87zM19.07 20.8a.87.87 0 10-.87-.87.87.87 0 00.87.87zm1.73 3.47A2.59 2.59 0 0123.24 26h10.2l5-4.95a.86.86 0 01.56-.25h9.17l2.1-2.09v-7.08l-6.69-6.69a2.59 2.59 0 111.49-2.34 2.59 2.59 0 01-.26 1.11l6.94 6.94a.9.9 0 01.25.62v7.8a.86.86 0 01-.25.61l-2.6 2.6a.9.9 0 01-.62.25h-9.17l-5 4.95a.86.86 0 01-.61.25H23.24a2.59 2.59 0 11-2.44-3.46zM42.47 1.73a.87.87 0 10.86.87.87.87 0 00-.86-.87zm-21.67 26a.87.87 0 10-.87-.86.87.87 0 00.87.86zM2.6 20.8a2.59 2.59 0 011.11.26l3.22-3.22v-5a2.6 2.6 0 111.74 0v5.36a.83.83 0 01-.26.61l-3.47 3.48a2.55 2.55 0 01.26 1.11 2.6 2.6 0 01-1.73 2.44v.67l6.68 6.68a.86.86 0 01.25.61v1a2.59 2.59 0 010 4.88v2a2.61 2.61 0 11-1.73 0v-2a2.58 2.58 0 010-4.88v-.67L2 27.48a.83.83 0 01-.26-.61v-1a2.59 2.59 0 01.87-5zm5.2-9.53a.87.87 0 10-.87-.87.87.87 0 00.87.87zm1.73 33.8a.87.87 0 10-.86-.87.87.87 0 00.86.87zm0-6.94a.87.87 0 10-.86-.86.87.87 0 00.86.86zM2.6 24.27a.87.87 0 10-.87-.87.87.87 0 00.87.87z" fill="#00b2ff"/></svg>