<svg xmlns="http://www.w3.org/2000/svg" viewBox="0 0 1801.26 517.4"><title>1Монтажная область 1</title><path d="M331.17,482.72l-.44-.75L55.63,5.47H606.71l-.44.75ZM57.36,6.47,331.17,480.72,605,6.47ZM165.5,483.39,4,203.64H327ZM5.72,204.64,165.5,481.39,325.28,204.64ZM1521.51,517.4v-323l279.75,161.52-.75.43Zm1-321.3V515.67l276.75-159.78Zm100.24,7L1446.91,101.52,1622.75,0ZM1448.91,101.52l172.84,99.79V1.73Z" fill="#fff" opacity="0.2"/><path d="M56,.39a5,5,0,1,1-5,5A5,5,0,0,1,56,.39Zm-51,199a5,5,0,1,1-5,5A5,5,0,0,1,5,199.39Zm161,278a5,5,0,1,1-5,5A5,5,0,0,1,166,477.39Zm165-1a5,5,0,1,1-5,5A5,5,0,0,1,331,476.39ZM606,.39a5,5,0,1,1-5,5A5,5,0,0,1,606,.39Z" fill="#fff"/></svg>