<svg id="icon-hired" xmlns="http://www.w3.org/2000/svg"><path d="M31.26 27.89a3.09 3.09 0 00.6-1.84v-4.11a.69.69 0 00-.68-.68h-3.06a2.56 2.56 0 00-2.56 2.56v2.23a3.09 3.09 0 00.6 1.84 4.51 4.51 0 00-1.34.45 5.78 5.78 0 00-4.29-2.56 4 4 0 001-2.69V17.5a.68.68 0 00-.69-.68H16.7a3.24 3.24 0 00-3.24 3.23v3a4 4 0 001 2.69 5.78 5.78 0 00-4.29 2.56 4.51 4.51 0 00-1.34-.45 3.09 3.09 0 00.6-1.84v-4.07a.69.69 0 00-.68-.68H5.7a2.56 2.56 0 00-2.56 2.56v2.23a3.09 3.09 0 00.6 1.84A4.47 4.47 0 000 32.29v2a.69.69 0 00.68.71h33.64a.69.69 0 00.68-.68v-2a4.47 4.47 0 00-3.74-4.43zM4.51 23.82a1.19 1.19 0 011.19-1.19h2.37v.83a.74.74 0 01-.74.74H4.51zm0 1.75h2.82a2 2 0 00.74-.14v.62a1.78 1.78 0 01-3.56 0zm2.22 3.63l-.44.44-.44-.44zm2.47 2.36v2.07H1.37v-1.34A3.1 3.1 0 014 29.24l1.85 1.85a.66.66 0 00.48.2.67.67 0 00.48-.2l1.85-1.85a3.15 3.15 0 01.94.31 5.64 5.64 0 00-.4 2.01zm8.3-5.81a2.68 2.68 0 01-2.67-2.67v-.9h4.09a2.64 2.64 0 001.25-.32v1.22a2.68 2.68 0 01-2.67 2.67zm1.19 1.37l-1.19 1.19-1.19-1.19zm-3.86-7.07a1.87 1.87 0 011.87-1.87h3.47v1.38a1.25 1.25 0 01-1.25 1.25h-4.09zm9.6 13.58H10.57v-1.36H15a.69.69 0 00.68-.69.68.68 0 00-.68-.68h-4.4a4.44 4.44 0 013.8-3.74l2.6 2.6a.68.68 0 001 0l2.6-2.6a4.45 4.45 0 013.85 4.4zm2.5-9.81a1.19 1.19 0 011.19-1.19h2.37v.83a.74.74 0 01-.74.74h-2.82zm0 1.75h2.82a2 2 0 00.74-.14v.62a1.78 1.78 0 11-3.56 0zm2.22 3.63l-.44.44-.44-.44zm-3.35 4.43v-2.07a5.64 5.64 0 00-.36-2 3.15 3.15 0 01.94-.31l1.85 1.85a.67.67 0 00.48.2.66.66 0 00.48-.2L31 29.24a3.1 3.1 0 012.59 3.05v1.34zM20.87 4.47a.68.68 0 00-1 0l-3.32 3.35-1.45-1.45a.69.69 0 00-1 1l1.93 1.93a.7.7 0 00.49.2.67.67 0 00.48-.2l3.84-3.84a.67.67 0 00.03-.99zM20.3.59a.69.69 0 00-.91.35.68.68 0 00.35.9 5.5 5.5 0 11-4.5 0 .68.68 0 00.34-.9.67.67 0 00-.9-.34 6.86 6.86 0 105.62 0zM17.52 0a.69.69 0 000 1.37.68.68 0 00.68-.68.68.68 0 00-.68-.69zM18 31.1a.68.68 0 00-1 0 .67.67 0 00-.2.48.68.68 0 101.36 0 .67.67 0 00-.16-.48z"/></svg>
