<svg id="ok" xmlns="http://www.w3.org/2000/svg"><path d="M13.85 11a1.76 1.76 0 10-1.77-1.77A1.77 1.77 0 0013.85 11zM13.7 0A13.09 13.09 0 00.54 13 13.08 13.08 0 0013.7 26a13.09 13.09 0 0013.17-13A13.08 13.08 0 0013.7 0zm.19 4.92a4.27 4.27 0 11-4.35 4.27 4.3 4.3 0 014.35-4.27zm4.83 10v.09a1.21 1.21 0 01-.56.88 7 7 0 01-.66.37 8.3 8.3 0 01-1.79.65c-.07 0-.07 0 0 .07.33.34.69.69 1 1s.88.88 1.32 1.3a1.24 1.24 0 01-.34 2 2 2 0 01-.43.13H17a1.46 1.46 0 01-.77-.39l-2.27-2.25h-.12l-2.29 2.27a1.45 1.45 0 01-.43.3 1.72 1.72 0 01-.36.09H10.42a1.18 1.18 0 01-1-.85 1.2 1.2 0 01.32-1.27l.94-.93L12.05 17v-.07h-.08A8.26 8.26 0 019.6 16a1.18 1.18 0 01-.6-1.24 1.26 1.26 0 012-.92 4.76 4.76 0 00.45.24 5.4 5.4 0 002.74.55 5 5 0 001.41-.26 7.15 7.15 0 001.26-.57 1.28 1.28 0 011.83.65 1.73 1.73 0 01.07.31z" fill="#cdcdcd"/></svg>
