<svg xmlns="http://www.w3.org/2000/svg" viewBox="0 0 1745 765"><title>Монтажная область 1</title><path d="M346.28,358.25l-76.75,133L192.77,358.25ZM31,358.25a4.93,4.93,0,0,1-2.06,3.8L184.57,631.66A4.88,4.88,0,0,1,187,631a5,5,0,0,1,1.64.3L269,492.2,191.61,358.25ZM622.13,160.08H81.87A4.93,4.93,0,0,1,80,163L192.19,357.25H348l-77.91,135,79.83,138.26a4.83,4.83,0,0,1,4.39.14L624.21,163.15A5,5,0,0,1,622.13,160.08ZM1642.75,354.93V155.35l-172.84,99.79ZM1744.87,553,1543.51,669.28V349.72L1744.87,466v-1.15L1542.51,348V671l202.36-116.83ZM632,159a5,5,0,0,0-10,0s0,.06,0,.08H82s0-.05,0-.08a5,5,0,1,0-5,5,5,5,0,0,0,2.17-.51L191,357.25H30.92a5,5,0,1,0-2.87,5.3l155.7,269.68a5,5,0,1,0,5.8-.51l80-138.52L349.07,631a5,5,0,1,0,6.09.18L625.09,163.62A5,5,0,0,0,632,159Zm835.91,96.14,175.84,101.52v-203Z" fill="#fff"/></svg>