<?xml version="1.0" encoding="utf-8"?>
<!-- Generator: Adobe Illustrator 23.0.1, SVG Export Plug-In . SVG Version: 6.00 Build 0)  -->
<svg version="1.1" id="Слой_1" xmlns="http://www.w3.org/2000/svg" xmlns:xlink="http://www.w3.org/1999/xlink" x="0px" y="0px"
	 viewBox="0 0 1745 765" style="enable-background:new 0 0 1745 765;" xml:space="preserve">
<style type="text/css">
	.st0{fill:#FFFFFF;}
</style>
<path class="st0" d="M346.3,358.3l-76.8,132.9l-76.8-132.9H346.3z M31,358.3c-0.1,1.6-0.9,2.9-2.1,3.8l155.7,269.6
	c0.7-0.4,1.5-0.7,2.4-0.7c0.6,0,1.1,0.1,1.6,0.3l80.3-139.1l-77.3-133.9H31z M622.1,160.1H81.9c-0.3,1.2-0.9,2.2-1.9,2.9
	l112.2,194.3H348l-77.9,134.9l79.8,138.3c0.6-0.3,1.3-0.5,2.1-0.5c0.8,0,1.6,0.2,2.3,0.6l269.9-467.5
	C623.2,162.4,622.4,161.4,622.1,160.1z M1642.8,354.9V155.3l-172.8,99.8L1642.8,354.9z M1744.9,553l-201.4,116.3V349.7L1744.9,466
	v-1.2L1542.5,348v323l202.4-116.8V553z M632,159c0-2.8-2.2-5-5-5s-5,2.2-5,5c0,0,0,0.1,0,0.1H82c0,0,0-0.1,0-0.1c0-2.8-2.2-5-5-5
	s-5,2.2-5,5s2.2,5,5,5c0.8,0,1.5-0.2,2.2-0.5L191,357.3H30.9c-0.4-2.4-2.4-4.3-4.9-4.3c-2.8,0-5,2.2-5,5s2.2,5,5,5
	c0.7,0,1.4-0.2,2-0.4l155.7,269.7c-1.1,0.9-1.7,2.3-1.7,3.8c0,2.8,2.2,5,5,5s5-2.2,5-5c0-1.8-1-3.4-2.5-4.3l80-138.5L349.1,631
	c-1.2,0.9-2.1,2.4-2.1,4c0,2.8,2.2,5,5,5s5-2.2,5-5c0-1.6-0.7-2.9-1.8-3.8l269.9-467.5c0.6,0.2,1.2,0.4,1.9,0.4
	C629.8,164,632,161.8,632,159z M1467.9,255.1l175.8,101.5v-203L1467.9,255.1z"/>
</svg>
